<svg id="Layer_1" height="512" viewBox="0 0 34 34" width="512" xmlns="http://www.w3.org/2000/svg"><path id="XMLID_2320_" d="m7.5 26h22.5c.83 0 1.5-.67 1.5-1.5v-22c0-.83-.67-1.5-1.5-1.5h-22.5c-2.76 0-5 2.24-5 5v22c0 2.76 2.24 5 5 5h22.5c.83 0 1.5-.67 1.5-1.5s-.67-1.5-1.5-1.5h-22.5c-1.1 0-2-.9-2-2s.9-2 2-2zm10.56-4.94c-.28.28-.67.44-1.06.44s-.78-.16-1.06-.44-.44-.66-.44-1.06c0-.39.16-.78.44-1.06.56-.56 1.56-.56 2.12 0 .28.28.44.67.44 1.06 0 .4-.16.78-.44 1.06zm-3.95-14.51c1.02-.85 2.37-1.21 3.69-.98 1.82.32 3.31 1.81 3.63 3.63.33 1.91-.57 3.81-2.26 4.74-.41.23-.67.74-.67 1.32v.24c0 .83-.67 1.5-1.5 1.5s-1.5-.67-1.5-1.5v-.24c0-1.68.85-3.19 2.22-3.94.44-.24.89-.81.75-1.6-.1-.59-.6-1.09-1.18-1.19-.47-.09-.91.03-1.25.32s-.54.71-.54 1.15c0 .83-.67 1.5-1.5 1.5s-1.5-.67-1.5-1.5c0-1.33.59-2.59 1.61-3.45z"/></svg>